<svg xmlns="http://www.w3.org/2000/svg" width="18" height="18" fill="#8F9699" viewBox="0 0 18 18" aria-hidden="true" class="BeeTextAlign_beeTextAlignIcon__vClxx"><path d="M18 17.156a.84.84 0 0 1-.844.844.84.84 0 0 1-.843-.844V.844a.843.843 0 1 1 1.687 0zM11.813 2.25c.931 0 1.687.756 1.687 1.688v2.25c0 .931-.756 1.687-1.687 1.687H1.688A1.69 1.69 0 0 1 0 6.188v-2.25C0 3.006.756 2.25 1.688 2.25zm0 7.875c.931 0 1.687.756 1.687 1.688v2.25c0 .931-.756 1.687-1.687 1.687H6.187A1.69 1.69 0 0 1 4.5 14.063v-2.25c0-.932.756-1.688 1.688-1.688z"></path></svg>
