<svg xmlns="http://www.w3.org/2000/svg" width="18" height="18" fill="#8F9699" viewBox="0 0 18 18" aria-hidden="true" class="BeeTextAlign_beeTextAlignIcon__vClxx"><path d="M10.03 1.491v1.405h6.1c1.065 0 1.928.755 1.928 1.685V6.83c0 .93-.863 1.686-1.927 1.686h-6.102v2.247h3.533c1.064 0 1.927.755 1.927 1.686v2.247c0 .93-.864 1.686-1.927 1.686h-3.533v1.405c0 .467-.43.842-.963.842-.534 0-.963-.375-.963-.842V16.38H4.57c-1.064 0-1.927-.755-1.927-1.686v-2.247c0-.93.863-1.686 1.927-1.686h3.533V8.515H2C.937 8.515.074 7.76.074 6.829V4.581c0-.93.863-1.685 1.927-1.685h6.102V1.49c0-.465.429-.843.963-.843s.963.378.963.843"></path></svg>