<?xml version="1.0" encoding="UTF-8"?>
<svg id="Layer_1" xmlns="http://www.w3.org/2000/svg" version="1.1" viewBox="0 0 32 32">
  <!-- Generator: Adobe Illustrator 30.2.1, SVG Export Plug-In . SVG Version: 2.1.1 Build 1)  -->
  <defs>
    <style>
      .st0 {
        fill: #47a6e3;
      }

      .st1 {
        fill: #ccc;
      }

      .st2 {
        fill: #623878;
      }
    </style>
  </defs>
  <g id="SVGRepo_iconCarrier">
    <path class="st1" d="M23,10.8c.2-.2.4-.2.6-.2h5.4c.7,0,1.2-.5,1.2-1.2V3c0-.7-.5-1.2-1.2-1.2h-9.9c-.7,0-1.2.5-1.2,1.2v6.4c0,.7.5,1.2,1.2,1.2s.9.4.9.9v2.2l3-2.8Z"/>
    <g>
      <path class="st2" d="M26.4,5.3h-1.5v-1.5c0-.5-.4-.9-.9-.9s-.9.4-.9.9v1.5h-1.5c-.5,0-.9.4-.9.9s.4.9.9.9h1.5v1.5c0,.5.4.9.9.9s.9-.4.9-.9v-1.5h1.5c.5,0,.9-.4.9-.9,0-.5-.4-.9-.9-.9Z"/>
      <path class="st2" d="M29,0h-9.9C17.4,0,16.1,1.3,16.1,3v6.4c0,1.3.9,2.5,2.1,2.9v3.4c0,.8.9,1.2,1.5.6l4.3-4h5.1c1.6,0,3-1.3,3-3V3C32,1.3,30.7,0,29,0ZM30.2,9.4c0,.7-.5,1.2-1.2,1.2h-5.4c-.2,0-.4,0-.6.2l-3,2.8v-2.2c0-.5-.4-.9-.9-.9s-1.2-.5-1.2-1.2V3c0-.7.5-1.2,1.2-1.2h9.9c.7,0,1.2.5,1.2,1.2v6.4h0Z"/>
      <path class="st2" d="M20.2,20.7c-.9-1.4-2.6-1.7-3.9-.9l-2.7,1.7c-.1,0-.2.1-.4.1-1,0-2.7-1.2-4-3.4-.8-1.2-1.2-2.6-1.3-3.7,0-.9.1-1.5.5-1.8l2.7-1.7c1.3-.8,1.8-2.6.9-3.9l-3.5-5.7C7.6,0,5.9-.4,4.5.4l-1.6,1C-1.4,4-.9,12.7,4.2,21.1c4,6.5,9.6,10.9,14,10.9h0c1.1,0,2-.3,2.9-.8l1.6-.9c1.4-.9,1.7-2.4.9-3.9l-3.5-5.7ZM21.8,28.8l-1.6.9c-.6.3-1.2.5-1.9.5h0c-3.7,0-8.9-4.2-12.5-10.1-1.9-3.2-3.2-6.4-3.7-9.3h1.3c.5,0,.9-.4.9-.9s-.4-.9-.9-.9h-1.5c0-.3,0-.7,0-1h3.1c.5,0,.9-.4.9-.9s-.4-.9-.9-.9H1.9c.3-1.6.9-2.8,2-3.4l1.6-.9c.5-.3,1.2-.2,1.5.4l3.5,5.7c.3.5.1,1.2-.4,1.5l-2.7,1.7c-1,.6-1.5,1.8-1.3,3.4.1,1.4.7,3,1.6,4.5,1.6,2.6,3.8,4.2,5.6,4.2s.9-.1,1.3-.4l2.7-1.7c.5-.3,1.2-.1,1.5.4l3.5,5.7c.3.5.2,1-.4,1.5Z"/>
    </g>
    <path class="st0" d="M3.3,10.9h-1.3c.5,2.9,1.8,6.1,3.7,9.3,3.6,5.9,8.8,10.1,12.5,10.1h0c.7,0,1.4-.2,1.9-.5l1.6-.9c.6-.5.6-.9.4-1.5l-3.5-5.7c-.3-.5-1-.7-1.5-.4l-2.7,1.7c-.4.2-.8.4-1.3.4-1.8,0-4-1.7-5.6-4.2-.9-1.5-1.5-3.1-1.6-4.5-.1-1.6.3-2.8,1.3-3.4l2.7-1.7c.5-.3.7-1,.4-1.5l-3.5-5.7c-.3-.5-1-.6-1.5-.4l-1.6.9c-1.1.6-1.7,1.8-2,3.4h3c.5,0,.9.4.9.9s-.4.9-.9.9H1.8c0,.3,0,.7,0,1h1.5c.5,0,.9.4.9.9,0,.5-.4.9-.9.9Z"/>
  </g>
</svg>