<?xml version="1.0" encoding="UTF-8"?>
<svg id="Capa_1" xmlns="http://www.w3.org/2000/svg" version="1.1" xmlns:xodm="http://www.corel.com/coreldraw/odm/2003" viewBox="0 0 32 32">
  <!-- Generator: Adobe Illustrator 30.2.1, SVG Export Plug-In . SVG Version: 2.1.1 Build 1)  -->
  <defs>
    <style>
      .st0 {
        fill: #ccc;
      }

      .st0, .st1, .st2, .st3 {
        fill-rule: evenodd;
      }

      .st1 {
        fill: #47a6e3;
      }

      .st2 {
        fill: #6c2e7c;
      }

      .st3 {
        fill: #eaeaea;
      }
    </style>
  </defs>
  <path class="st2" d="M6.6,0h18.9C29.1,0,32.1,3.6,32.1,8v16c0,4.4-3,8-6.6,8H6.6c-3.6,0-6.6-3.6-6.6-8V8C0,3.6,3,0,6.6,0Z"/>
  <path class="st3" d="M29.4,11.1v12.9c0,2.6-1.8,4.8-3.9,4.8H6.6c-2.2,0-3.9-2.2-3.9-4.8v-12.9l12.2,7.7c.8.5,1.6.5,2.4,0l12.2-7.7h-.1Z"/>
  <path class="st0" d="M29.4,24.5s-.3,3.7-3.4,4.3H6.6s-3.6.3-3.9-4.8c0,0,10,.3,15.2,2.3s11.5-1.8,11.5-1.8Z"/>
  <path class="st1" d="M2.6,7.5l13.4,8.5,13.4-8.5c-.2-2.4-1.9-4.3-3.9-4.3H6.6c-2,0-3.7,1.9-3.9,4.3h0Z"/>
</svg>