<svg xmlns="http://www.w3.org/2000/svg" data-name="Layer 1" viewBox="0 0 31 38" class="SidebarModule_icon__-XEVH" width="36" height="36" aria-hidden="true"><path d="M30 0H9.4a.91.91 0 0 0-.7.3L.3 7.9a.91.91 0 0 0-.3.7V37a.94.94 0 0 0 1 1h29a1 1 0 0 0 1-1V1a.94.94 0 0 0-1-1M7.7 3.91l.5-.46V8H3.7ZM29 36H2V10h7.2a.94.94 0 0 0 1-1V2H29Zm-15.2-6-1-.2L17 13.5l1 .2Zm-2.4-12.4-3.7 3.7 3.7 3.7-.7.9-4.1-4.1c-.1-.1-.1-.2-.1-.4s.1-.3.1-.4l4.1-4.1Zm8 7.6 3.7-3.7-3.7-3.7.7-.7 4.1 4.1c.1.1.1.2.1.4s-.1.3-.1.4l-4.1 3.9Z"></path></svg>