<svg xmlns="http://www.w3.org/2000/svg" width="36" height="36" aria-hidden="true" data-icon="list" data-prefix="far" viewBox="0 0 512 512" class="SidebarModule_icon__-XEVH"><path d="M80 48H16A16 16 0 0 0 0 64v64a16 16 0 0 0 16 16h64a16 16 0 0 0 16-16V64a16 16 0 0 0-16-16m0 160H16a16 16 0 0 0-16 16v64a16 16 0 0 0 16 16h64a16 16 0 0 0 16-16v-64a16 16 0 0 0-16-16m0 160H16a16 16 0 0 0-16 16v64a16 16 0 0 0 16 16h64a16 16 0 0 0 16-16v-64a16 16 0 0 0-16-16m416-136H176a16 16 0 0 0-16 16v16a16 16 0 0 0 16 16h320a16 16 0 0 0 16-16v-16a16 16 0 0 0-16-16m0 160H176a16 16 0 0 0-16 16v16a16 16 0 0 0 16 16h320a16 16 0 0 0 16-16v-16a16 16 0 0 0-16-16m0-320H176a16 16 0 0 0-16 16v16a16 16 0 0 0 16 16h320a16 16 0 0 0 16-16V88a16 16 0 0 0-16-16"></path></svg>