<?xml version="1.0" encoding="UTF-8"?>
<svg id="Capa_2" data-name="Capa 2" xmlns="http://www.w3.org/2000/svg" viewBox="0 0 141.76 22.27">
  <defs>
    <style>
      .cls-1 {
        fill: #4d4c4c;
      }

      .cls-2 {
        fill: #e9f2f4;
      }

      .cls-3 {
        fill: #84a7b7;
      }

      .cls-4 {
        fill: #cfdfe2;
      }
    </style>
  </defs>
  <g id="Capa_1-2" data-name="Capa 1">
    <g id="SVGRepo_iconCarrier" data-name="SVGRepo iconCarrier">
      <path class="cls-2" d="M26.21,21.76H5.97c-1.49,0-2.7-1.21-2.7-2.7V3.21c0-1.49,1.21-2.7,2.7-2.7h20.24c1.49,0,2.7,1.21,2.7,2.7v15.86c0,1.49-1.21,2.7-2.7,2.7Z"/>
      <path class="cls-4" d="M28.91,4.07v15.01c0,1.48-1.21,2.68-2.7,2.68H5.97c-1.49,0-2.7-1.2-2.7-2.68V3.87l11.41,6.8c1.03.62,2.32.61,3.35-.01l10.88-6.6Z"/>
      <path class="cls-3" d="M31.44,12.53l-2,2.67c-.1.13-.31.19-.46.12-.07-.03-.13-.09-.14-.16l-.3-1.1-23.25,6.26-.33.09c-.31.08-.61.12-.92.12-1.56,0-3-1.04-3.42-2.61-.51-1.87.62-3.81,2.5-4.31l.14-.04v1.05c-1.27.41-2.01,1.75-1.66,3.05.36,1.34,1.75,2.14,3.1,1.78l.33-.09,23.25-6.26-.61-2.27c-.02-.07,0-.14.05-.21.1-.13.31-.19.46-.12l3.07,1.31c.31.13.4.46.19.72Z"/>
      <path class="cls-1" d="M25.67,16.31c.07.27-.09.55-.36.62l-6.53,1.74s-.09.02-.13.02c-.22,0-.43-.15-.49-.38-.07-.27.09-.55.36-.62l6.53-1.74c.27-.07.55.09.62.36ZM31.84,12.83l-2,2.67c-.24.32-.7.44-1.07.28h0c-.22-.09-.38-.27-.43-.49l-.39-1.43-23.16,6.23-.33.09c-.13.03-.25.06-.38.08.4.61,1.08,1,1.85,1h20.27c1.21,0,2.2-.98,2.2-2.18v-1.77c0-.28.23-.51.51-.51s.51.23.51.51v1.77c0,1.76-1.44,3.19-3.21,3.19H5.93c-1.34,0-2.51-.8-2.99-2.02-1.32-.23-2.46-1.19-2.83-2.56-.24-.91-.12-1.86.35-2.67.47-.82,1.24-1.4,2.15-1.65l.1-.03V3.88s0-.01,0-.02v-.67c0-1.76,1.44-3.19,3.21-3.19h20.27c1.77,0,3.21,1.43,3.21,3.19v.87s0,.01,0,.02v4.64c0,.28-.23.51-.51.51s-.51-.23-.51-.51v-3.75l-10.13,6.13c-1.19.72-2.68.73-3.88.01L3.74,4.76v13.08c0,.28-.23.51-.51.51s-.51-.23-.51-.51v-3.45c-.58.2-1.07.59-1.38,1.13-.33.58-.42,1.25-.25,1.9.36,1.34,1.75,2.14,3.1,1.78l.33-.09,23.16-6.23-.52-1.93c-.06-.22-.01-.45.13-.64.24-.32.7-.44,1.07-.28l3.07,1.31c.29.12.5.36.58.65.08.29.01.59-.18.85ZM3.74,3.58l11.17,6.66c.88.52,1.96.52,2.84-.01l10.65-6.45v-.59c0-1.2-.99-2.18-2.2-2.18H5.93c-1.21,0-2.2.98-2.2,2.18,0,0,0,.39,0,.39ZM31.01,12.26l-2.76-1.18.96,3.57,1.79-2.39ZM18.53,13.26l-.07.02c-.27.07-.43.35-.36.62.06.23.27.38.49.38.04,0,.09,0,.13-.02l.07-.02c.27-.07.43-.35.36-.62-.07-.27-.35-.43-.62-.36ZM15.98,13.93l-.07.02c-.27.07-.43.35-.36.62.06.23.26.38.49.38.04,0,.09,0,.13-.02l.07-.02c.27-.07.43-.35.36-.62s-.35-.43-.62-.36ZM16.57,18.21l-.07.02c-.27.07-.43.35-.36.62.06.23.26.38.49.38.04,0,.09,0,.13-.02l.07-.02c.27-.07.43-.35.36-.62-.07-.27-.35-.43-.62-.36ZM25.05,11.52l-4.57,1.22c-.27.07-.43.35-.36.62.06.23.26.38.49.38.04,0,.09,0,.13-.02l4.57-1.22c.27-.07.43-.35.36-.62-.07-.27-.35-.43-.62-.36Z"/>
    </g>
    <g>
      <path class="cls-3" d="M35.54,6.9h2.09l2.7,5.47,2.63-5.47h2.1l-4.76,9.81-4.76-9.81Z"/>
      <path class="cls-3" d="M55.77,12.01h-8.07c.18.97.57,1.68,1.2,2.13s1.3.67,2.03.67c1.13,0,2.08-.47,2.84-1.41l1.46,1.1c-1.09,1.41-2.56,2.12-4.39,2.12-1.41,0-2.58-.48-3.53-1.44s-1.42-2.16-1.42-3.59c0-1.34.48-2.5,1.44-3.48s2.13-1.47,3.51-1.47,2.53.5,3.5,1.5,1.45,2.29,1.43,3.88ZM47.91,10.42h5.78c-.64-1.3-1.59-1.95-2.84-1.95-1.37,0-2.35.65-2.93,1.95Z"/>
      <path class="cls-3" d="M63.77,8.02l-1.33,1.17c-.34-.24-.64-.43-.89-.56s-.55-.19-.89-.19c-.81,0-1.21.3-1.21.89,0,.43.51.84,1.54,1.25s1.77.85,2.22,1.33c.45.48.68,1.06.68,1.74,0,.79-.32,1.49-.97,2.08-.65.59-1.41.89-2.29.89-1.34,0-2.43-.62-3.29-1.86l1.57-.76c.55.53,1.12.8,1.72.8.41,0,.77-.11,1.08-.34s.46-.49.46-.79c0-.53-.54-1-1.63-1.42-1.08-.42-1.84-.85-2.25-1.28-.42-.43-.62-.96-.62-1.6,0-.79.3-1.44.89-1.96.59-.52,1.34-.79,2.23-.79s1.89.46,3,1.39Z"/>
      <path class="cls-3" d="M75.32,12.01h-8.07c.18.97.57,1.68,1.2,2.13s1.3.67,2.03.67c1.13,0,2.08-.47,2.84-1.41l1.46,1.1c-1.09,1.41-2.56,2.12-4.39,2.12-1.41,0-2.58-.48-3.53-1.44s-1.42-2.16-1.42-3.59c0-1.34.48-2.5,1.44-3.48s2.13-1.47,3.51-1.47,2.53.5,3.5,1.5,1.45,2.29,1.43,3.88ZM67.46,10.42h5.78c-.64-1.3-1.59-1.95-2.84-1.95-1.37,0-2.35.65-2.93,1.95Z"/>
      <path class="cls-3" d="M77.43,16.35V6.9h1.97v1.46c.47-.6.91-1.03,1.34-1.31s.91-.41,1.46-.41c.72,0,1.28.16,1.69.47s.75.81,1.04,1.5c.5-.69.98-1.19,1.44-1.5s1-.47,1.62-.47c.75,0,1.4.28,1.94.84.54.56.82,1.23.82,2v6.88h-1.99v-6.36c0-1.05-.52-1.57-1.55-1.57-.59,0-1.09.27-1.5.8-.41.53-.62,1.2-.62,1.98v5.15h-1.99v-6.1c0-1.24-.51-1.86-1.52-1.86-.6,0-1.12.25-1.54.76s-.63,1.13-.63,1.87v5.33h-1.97Z"/>
      <path class="cls-3" d="M101.23,6.9h1.99v9.45h-1.99v-1.88c-.97,1.43-2.17,2.14-3.61,2.14-1.25,0-2.31-.49-3.19-1.47s-1.32-2.17-1.32-3.56c0-1.32.45-2.48,1.34-3.47s1.93-1.48,3.13-1.48c.74,0,1.44.2,2.11.61s1.18.93,1.55,1.58v-1.93ZM101.51,11.66c0-.86-.31-1.6-.93-2.22-.62-.62-1.36-.92-2.23-.92s-1.58.31-2.21.92c-.63.61-.94,1.33-.94,2.15,0,.89.31,1.65.92,2.28.61.63,1.35.94,2.23.94s1.6-.31,2.23-.93c.62-.62.93-1.36.93-2.22Z"/>
      <path class="cls-3" d="M105.85,3.79c0-.41.15-.77.46-1.07s.67-.45,1.09-.45.77.15,1.07.45.45.66.45,1.07-.15.78-.45,1.08-.66.45-1.07.45-.78-.15-1.09-.45-.46-.66-.46-1.08ZM106.41,6.9h1.97v9.45h-1.97V6.9Z"/>
      <path class="cls-3" d="M111.64,1.48h1.99v14.88h-1.99V1.48Z"/>
      <path class="cls-3" d="M116.14,3.79c0-.41.15-.77.46-1.07s.67-.45,1.09-.45.77.15,1.07.45.45.66.45,1.07-.15.78-.45,1.08-.66.45-1.07.45-.78-.15-1.09-.45-.46-.66-.46-1.08ZM116.7,6.9h1.97v9.45h-1.97V6.9Z"/>
      <path class="cls-3" d="M121.29,16.35V6.9h1.95v1.57c.57-.63,1.09-1.1,1.56-1.39s.99-.44,1.56-.44c.86,0,1.59.28,2.19.85s.91,1.25.91,2.04v6.83h-1.99v-6.25c0-.51-.17-.94-.5-1.27s-.75-.5-1.27-.5c-.66,0-1.24.28-1.72.84s-.72,1.24-.72,2.03v5.15h-1.97Z"/>
      <path class="cls-3" d="M139.81,6.9h1.95v9.08c0,1.34-.46,2.47-1.38,3.41s-2.03,1.4-3.34,1.4c-.99,0-1.91-.27-2.74-.81s-1.44-1.36-1.83-2.46h2.06c.62,1.02,1.48,1.54,2.58,1.54.75,0,1.39-.27,1.91-.81s.79-1.19.79-1.94v-1.79c-.96,1.4-2.18,2.1-3.64,2.1-1.21,0-2.26-.5-3.16-1.5s-1.35-2.18-1.35-3.54.44-2.53,1.31-3.5,1.92-1.46,3.12-1.46c1.56,0,2.8.75,3.71,2.26v-1.99ZM140.08,11.61c0-.89-.31-1.63-.92-2.22s-1.38-.89-2.29-.89c-.83,0-1.57.31-2.2.93s-.95,1.33-.95,2.14c0,.88.31,1.64.94,2.27s1.37.95,2.23.95,1.63-.31,2.25-.93.93-1.37.93-2.25Z"/>
    </g>
  </g>
</svg>