<svg xmlns="http://www.w3.org/2000/svg" width="36" height="36" fill="none" viewBox="0 0 35 31" class="SidebarModule_icon__-XEVH" aria-hidden="true"><path fill="#000" d="M34.4 21.333H.6a.6.6 0 0 0-.6.6v1.134a.6.6 0 0 0 .6.6h33.8a.6.6 0 0 0 .6-.6v-1.134a.6.6 0 0 0-.6-.6M34.4 28.333H.6a.6.6 0 0 0-.6.6v1.134a.6.6 0 0 0 .6.6h33.8a.6.6 0 0 0 .6-.6v-1.134a.6.6 0 0 0-.6-.6M15.733.333H.6a.6.6 0 0 0-.6.6v1.134a.6.6 0 0 0 .6.6h15.133a.6.6 0 0 0 .6-.6V.933a.6.6 0 0 0-.6-.6M15.733 7.333H.6a.6.6 0 0 0-.6.6v1.134a.6.6 0 0 0 .6.6h15.133a.6.6 0 0 0 .6-.6V7.933a.6.6 0 0 0-.6-.6M19.733 14.333H.6a.6.6 0 0 0-.6.6v1.134a.6.6 0 0 0 .6.6h19.133a.6.6 0 0 0 .6-.6v-1.134a.6.6 0 0 0-.6-.6"></path><path fill="#000" fill-rule="evenodd" d="M33.56 2.858V16.13a.49.49 0 0 1-.476.498H31.66a.49.49 0 0 1-.475-.498V2.858H28.56v13.271a.49.49 0 0 1-.475.498h-1.422a.49.49 0 0 1-.476-.498v-4.871l-.05-1C23.3 10.258 21 8.31 21 5.288c0-3.502 2.654-4.96 5.678-4.96h7.847c.26 0 .475.228.475.507v1.518c0 .278-.214.506-.475.506z" clip-rule="evenodd"></path></svg>