<svg xmlns="http://www.w3.org/2000/svg" width="36" height="36" fill="none" viewBox="0 0 36 30" class="SidebarModule_icon__-XEVH" aria-hidden="true"><path fill="#000" fill-rule="evenodd" d="M32 8H3v20h29zM3 7a1 1 0 0 0-1 1v20a1 1 0 0 0 1 1h29a1 1 0 0 0 1-1V8a1 1 0 0 0-1-1z" clip-rule="evenodd"></path><path fill="#000" d="M16.68 10.427a.4.4 0 0 1 .64 0l2.2 2.933a.4.4 0 0 1-.32.64H18v8h1.2a.4.4 0 0 1 .32.64l-2.2 2.933a.4.4 0 0 1-.64 0l-2.2-2.933a.4.4 0 0 1 .32-.64H16v-8h-1.2a.4.4 0 0 1-.32-.64z"></path></svg>