<svg xmlns="http://www.w3.org/2000/svg" fill="currentColor" viewBox="0 0 44 34" class="SidebarModule_icon__-XEVH" width="36" height="36" aria-hidden="true"><path d="m26.458 16.402-7.847-4.958a.72.72 0 0 0-.726-.024.71.71 0 0 0-.37.622v9.916a.71.71 0 0 0 .713.709.7.7 0 0 0 .383-.11l7.847-4.96a.71.71 0 0 0 0-1.195"></path><path d="M42.527 0H.746A.74.74 0 0 0 0 .74v32.52c0 .41.334.74.746.74h41.78c.412 0 .747-.33.747-.74V.74a.74.74 0 0 0-.746-.74M7.46 16.26H1.492V9.61h5.969v6.652zm-5.969 1.48H7.46v6.651H1.492zm7.461 7.39V1.478H34.32v31.044H8.953zm32.828-8.87h-5.97V9.61h5.97v6.652zm-5.97 1.48h5.97v6.651h-5.97zm5.97-16.262V8.13h-5.97V1.478zm-40.289 0H7.46V8.13H1.492zm0 31.044V25.87H7.46v6.652zm40.289 0h-5.97V25.87h5.97z"></path></svg>