<?xml version="1.0" encoding="UTF-8"?>
<svg id="Capa_2" data-name="Capa 2" xmlns="http://www.w3.org/2000/svg" viewBox="0 0 32.05 22.27">
  <defs>
    <style>
      .cls-1 {
        fill: #84a7b7;
      }

      .cls-2 {
        fill: #4d4c4c;
      }

      .cls-3 {
        fill: #e9f2f4;
      }

      .cls-4 {
        fill: #cfdfe2;
      }
    </style>
  </defs>
  <g id="Capa_2-2" data-name="Capa 2">
    <g id="Capa_1-2" data-name="Capa 1-2">
      <g id="SVGRepo_iconCarrier" data-name="SVGRepo iconCarrier">
        <path class="cls-3" d="M26.22,21.76H5.98c-1.49,0-2.7-1.21-2.7-2.7V3.21c0-1.49,1.21-2.7,2.7-2.7h20.24c1.49,0,2.7,1.21,2.7,2.7v15.86c0,1.49-1.21,2.7-2.7,2.7h0Z"/>
        <path class="cls-4" d="M28.92,4.07v15.01c0,1.48-1.21,2.68-2.7,2.68H5.98c-1.49,0-2.7-1.2-2.7-2.68V3.87l11.41,6.8c1.03.62,2.32.61,3.35-.01l10.88-6.6h0Z"/>
        <path class="cls-1" d="M31.45,12.53l-2,2.67c-.1.13-.31.19-.46.12-.07-.03-.13-.09-.14-.16l-.3-1.1-23.25,6.26-.33.09c-.31.08-.61.12-.92.12-1.56,0-3-1.04-3.42-2.61-.51-1.87.62-3.81,2.5-4.31l.14-.04v1.05c-1.27.41-2.01,1.75-1.66,3.05.36,1.34,1.75,2.14,3.1,1.78l.33-.09,23.25-6.26-.61-2.27c-.02-.07,0-.14.05-.21.1-.13.31-.19.46-.12l3.07,1.31c.31.13.4.46.19.72Z"/>
        <path class="cls-2" d="M25.68,16.31c.07.27-.09.55-.36.62l-6.53,1.74s-.09.02-.13.02c-.22,0-.43-.15-.49-.38-.07-.27.09-.55.36-.62l6.53-1.74c.27-.07.55.09.62.36ZM31.85,12.83l-2,2.67c-.24.32-.7.44-1.07.28h0c-.22-.09-.38-.27-.43-.49l-.39-1.43-23.16,6.23-.33.09c-.13.03-.25.06-.38.08.4.61,1.08,1,1.85,1h20.27c1.21,0,2.2-.98,2.2-2.18v-1.77c0-.28.23-.51.51-.51s.51.23.51.51v1.77c0,1.76-1.44,3.19-3.21,3.19H5.94c-1.34,0-2.51-.8-2.99-2.02-1.32-.23-2.46-1.19-2.83-2.56-.24-.91-.12-1.86.35-2.67.47-.82,1.24-1.4,2.15-1.65l.1-.03V3.19c0-1.76,1.44-3.19,3.21-3.19h20.27c1.77,0,3.21,1.43,3.21,3.19v5.53c0,.28-.23.51-.51.51s-.51-.23-.51-.51v-3.75l-10.13,6.13c-1.19.72-2.68.73-3.88.01L3.75,4.76v13.08c0,.28-.23.51-.51.51s-.51-.23-.51-.51v-3.45c-.58.2-1.07.59-1.38,1.13-.33.58-.42,1.25-.25,1.9.36,1.34,1.75,2.14,3.1,1.78l.33-.09,23.16-6.23-.52-1.93c-.06-.22-.01-.45.13-.64.24-.32.7-.44,1.07-.28l3.07,1.31c.29.12.5.36.58.65.08.29,0,.59-.18.85h.01ZM3.75,3.58l11.17,6.66c.88.52,1.96.52,2.84-.01l10.65-6.45v-.59c0-1.2-.99-2.18-2.2-2.18H5.94c-1.21,0-2.2.98-2.2,2.18v.39h.01ZM31.02,12.26l-2.76-1.18.96,3.57,1.79-2.39h.01ZM18.54,13.26l-.07.02c-.27.07-.43.35-.36.62.06.23.27.38.49.38.04,0,.09,0,.13-.02l.07-.02c.27-.07.43-.35.36-.62-.07-.27-.35-.43-.62-.36ZM15.99,13.93l-.07.02c-.27.07-.43.35-.36.62.06.23.26.38.49.38.04,0,.09,0,.13-.02l.07-.02c.27-.07.43-.35.36-.62s-.35-.43-.62-.36ZM16.58,18.21l-.07.02c-.27.07-.43.35-.36.62.06.23.26.38.49.38.04,0,.09,0,.13-.02l.07-.02c.27-.07.43-.35.36-.62s-.35-.43-.62-.36ZM25.06,11.52l-4.57,1.22c-.27.07-.43.35-.36.62.06.23.26.38.49.38.04,0,.09,0,.13-.02l4.57-1.22c.27-.07.43-.35.36-.62-.07-.27-.35-.43-.62-.36Z"/>
      </g>
    </g>
  </g>
</svg>